<?xml version="1.0" standalone="no"?>
<!DOCTYPE svg PUBLIC "-//W3C//DTD SVG 20010904//EN"
 "http://www.w3.org/TR/2001/REC-SVG-20010904/DTD/svg10.dtd">
<svg version="1.0" xmlns="http://www.w3.org/2000/svg"
 width="1024.000000pt" height="1024.000000pt" viewBox="0 0 1024.000000 1024.000000"
 preserveAspectRatio="xMidYMid meet">

<g transform="translate(0.000000,1024.000000) scale(0.100000,-0.100000)"
fill="#000000" stroke="none">
<path d="M0 5120 l0 -5120 5120 0 5120 0 0 5120 0 5120 -5120 0 -5120 0 0
-5120z m6548 2164 c20 -23 23 -35 20 -76 l-5 -48 295 -253 c379 -324 373 -320
386 -307 19 19 91 12 114 -12 29 -31 43 -72 36 -106 -5 -27 5 -38 148 -160
239 -204 242 -207 276 -193 63 26 132 -23 132 -94 0 -46 -30 -95 -57 -95 -14
0 -14 -67 -8 -642 4 -354 9 -655 10 -670 1 -16 2 -65 3 -110 2 -83 2 -83 35
-98 21 -10 36 -27 46 -52 12 -34 12 -41 -6 -75 -24 -47 -73 -67 -126 -52 -34
9 -35 8 -122 -80 -54 -56 -94 -89 -106 -88 -14 1 6 26 78 99 53 53 94 100 91
104 -4 3 -46 -6 -95 -21 -152 -45 -758 -246 -766 -254 -21 -21 15 -40 163 -85
l160 -48 31 26 c33 28 76 34 111 15 11 -6 23 -7 27 -3 4 5 39 40 79 79 49 47
75 66 82 59 7 -7 -15 -35 -69 -88 -77 -74 -79 -78 -69 -107 12 -35 -3 -82 -36
-104 -23 -17 -79 -20 -104 -6 -14 7 -33 -3 -85 -45 -38 -32 -72 -52 -79 -48
-6 4 -8 3 -5 -3 4 -6 -24 -35 -61 -65 -37 -30 -150 -121 -250 -202 -112 -90
-187 -145 -193 -139 -11 11 237 216 252 208 5 -4 8 -1 7 5 -2 7 62 66 142 131
136 110 171 136 154 107 -4 -7 -3 -8 5 -4 6 4 9 11 6 16 -3 5 10 21 30 37 31
26 34 32 28 66 -5 33 -10 38 -47 48 -22 6 -93 26 -156 46 -154 47 -150 46
-150 34 0 -15 -58 -43 -83 -39 -19 3 -40 -33 -179 -307 -87 -171 -156 -296
-154 -279 4 33 142 317 157 322 5 2 7 7 5 11 -3 4 22 63 54 130 33 68 60 125
60 127 0 12 -38 -2 -145 -51 -66 -30 -126 -53 -133 -50 -7 3 -11 1 -8 -4 3 -4
-33 -25 -81 -46 l-86 -39 7 -111 c3 -60 3 -132 -1 -160 -6 -43 -9 -30 -19 98
-7 82 -14 151 -16 153 -3 2 -31 -9 -64 -25 -32 -16 -65 -26 -73 -23 -8 3 18
22 64 44 l77 39 -6 52 c-3 29 -11 114 -17 189 -10 119 -14 138 -29 138 -10 0
-29 9 -43 20 -14 11 -28 20 -31 20 -7 0 -434 -276 -522 -337 -34 -24 -64 -50
-68 -58 -3 -9 -12 -12 -23 -8 -23 9 -116 111 -119 130 -2 8 1 12 4 8 4 -4 7
-12 7 -18 0 -7 5 -12 12 -12 6 0 29 -16 51 -36 l40 -36 127 84 c69 46 131 81
137 77 6 -4 8 -3 5 3 -3 5 70 60 164 122 156 104 189 135 157 146 -14 4 -311
14 -449 15 -60 0 -88 4 -92 13 -3 9 54 11 273 9 l277 -3 6 23 c7 26 -21 54
-204 195 -179 139 -178 138 -192 119 -7 -9 -30 -23 -52 -30 -37 -13 -45 -22
-101 -127 -97 -182 -104 -149 -11 51 52 110 36 114 -103 30 -45 -28 -85 -48
-90 -45 -5 3 -11 0 -13 -5 -4 -7 -5 -7 -4 0 1 5 47 41 102 78 96 67 100 70
101 108 1 21 4 48 7 59 5 16 -13 37 -97 108 -56 49 -103 94 -103 102 0 7 45
-21 99 -63 137 -107 145 -111 185 -105 25 4 42 0 61 -14 19 -14 34 -18 49 -12
22 8 446 250 558 319 93 57 87 66 -47 74 -90 5 -943 10 -1062 6 -35 -1 -46 -7
-46 -26 0 -8 4 -13 8 -10 5 3 21 -8 36 -23 42 -44 13 -49 -34 -7 -40 36 -60
45 -60 26 0 -5 -7 -7 -15 -4 -8 4 -15 1 -15 -5 0 -8 -5 -9 -19 -1 -14 7 -22 7
-26 0 -4 -6 -11 -8 -16 -5 -5 4 -9 2 -9 -4 0 -5 -9 -9 -19 -8 -17 1 -14 6 16
33 55 49 43 58 -74 57 -81 -1 -103 2 -107 14 -3 8 -10 11 -16 8 -6 -3 -10 4
-10 17 0 17 -3 19 -9 9 -7 -11 -10 -9 -15 7 -4 12 -16 24 -27 27 -10 4 -19 13
-19 21 0 8 -4 14 -9 14 -5 0 -12 9 -16 19 -8 27 -82 101 -100 101 -8 0 -36 22
-61 49 -48 52 -97 71 -178 71 -58 0 -188 -39 -276 -83 -110 -55 -293 -190
-265 -195 11 -2 52 -14 92 -28 89 -30 90 -30 98 4 3 15 15 38 26 52 l20 25 -7
-25 c-8 -25 -9 -69 -3 -74 69 -44 90 -56 99 -56 6 0 16 -12 23 -27 6 -16 19
-36 29 -46 9 -11 19 -30 23 -44 6 -24 35 -63 35 -47 0 3 7 1 16 -7 18 -15 52
-20 59 -8 3 4 0 20 -5 35 -19 48 -1 38 21 -12 12 -27 23 -51 23 -54 1 -3 12
-22 24 -42 24 -38 66 -58 124 -58 14 0 28 -4 30 -10 2 -5 18 -13 37 -16 22 -5
32 -4 28 3 -4 6 2 18 13 28 16 14 17 20 8 27 -10 6 -9 8 4 8 9 0 58 -39 108
-86 90 -86 160 -187 166 -240 1 -12 5 -29 9 -36 23 -46 -42 47 -74 105 -22 40
-55 86 -73 104 -36 35 -104 61 -156 60 -19 0 -38 6 -43 14 -5 8 -9 10 -9 6 0
-5 -6 -5 -12 0 -12 7 -46 12 -115 16 -13 1 -23 6 -23 10 0 5 -10 6 -22 2 -22
-6 -22 -6 -4 9 19 16 19 16 -2 16 -12 0 -22 -6 -23 -12 0 -10 -2 -10 -6 0 -2
6 -10 12 -17 12 -6 0 -19 8 -28 17 -30 33 -63 60 -70 59 -4 0 -15 10 -25 24
-34 49 -78 92 -108 105 -16 7 -42 25 -58 40 -15 14 -32 23 -37 20 -5 -3 -19 4
-31 16 -19 19 -30 21 -96 17 -69 -3 -72 -1 -18 17 19 6 18 8 -10 31 -41 33
-66 30 -138 -13 -34 -20 -81 -46 -105 -58 l-42 -21 45 -34 c63 -47 107 -140
112 -237 4 -71 -17 -194 -38 -219 -5 -6 -8 -29 -5 -50 2 -22 5 -42 5 -46 1 -5
5 -8 11 -8 5 0 7 6 5 13 -7 17 15 46 22 29 2 -6 9 -10 14 -6 5 3 10 -1 10 -8
1 -7 5 3 9 22 5 24 7 8 6 -52 0 -49 -3 -88 -7 -88 -12 0 -67 -155 -72 -206 -7
-60 20 -179 49 -217 40 -53 119 -86 226 -94 66 -5 85 -3 129 16 28 12 53 20
56 17 9 -9 -8 -26 -26 -26 -10 0 -24 -7 -31 -15 -6 -8 -15 -14 -18 -13 -13 4
-52 -14 -48 -21 8 -12 -137 6 -184 24 -77 28 -80 29 -80 11 0 -10 4 -14 10
-11 6 4 7 -1 3 -10 -4 -12 9 -31 40 -61 26 -24 50 -44 56 -44 5 0 26 -16 47
-35 22 -20 60 -47 87 -61 45 -23 57 -34 39 -34 -14 0 -145 82 -191 119 -24 20
-69 67 -100 106 -30 38 -60 73 -65 77 -6 4 -8 8 -4 8 4 0 -6 23 -22 50 -17 28
-30 53 -30 56 0 10 -44 64 -53 64 -4 0 -6 -10 -2 -22 5 -21 5 -21 -6 -5 -10
18 -13 16 -39 -15 -23 -26 -31 -31 -41 -20 -11 10 -10 12 2 12 45 1 53 33 33
143 -17 97 -18 129 -5 107 6 -8 7 -18 5 -22 -3 -4 -1 -8 5 -8 5 0 11 6 14 13
2 6 7 9 11 6 9 -8 -4 -40 -14 -34 -5 3 -6 -4 -3 -15 3 -11 9 -17 14 -14 5 3 9
-2 9 -11 0 -12 5 -15 16 -11 14 5 15 4 4 -9 -10 -11 -10 -15 0 -15 6 0 14 9
17 20 3 11 9 17 14 14 18 -11 30 90 14 116 -5 8 -4 11 2 7 17 -11 24 36 14 96
0 4 -7 2 -15 -5 -9 -8 -10 -15 -3 -19 5 -4 7 -14 4 -24 -4 -10 -12 -13 -19 -8
-7 4 -17 8 -23 9 -30 4 -54 18 -48 28 4 6 -1 5 -10 -3 -15 -12 -16 -10 -11 20
8 39 24 63 24 35 0 -15 3 -16 15 -6 11 9 12 16 5 25 -8 10 -8 15 1 21 8 4 9 3
5 -4 -15 -24 1 -11 23 19 19 25 21 33 10 40 -10 6 -26 -3 -52 -29 -21 -20 -35
-29 -32 -19 4 9 10 17 14 17 4 0 15 18 25 41 l18 41 -26 26 c-14 15 -26 21
-26 14 0 -7 -22 -40 -50 -73 -27 -33 -50 -58 -50 -54 0 3 26 44 59 93 70 104
98 157 104 197 3 17 8 42 12 57 7 28 -7 64 -34 85 -9 7 -49 31 -88 54 -40 22
-73 43 -73 45 0 3 5 2 11 -2 25 -15 84 -23 96 -12 9 7 13 7 14 -1 1 -6 2 -17
3 -23 0 -7 8 -13 16 -13 8 0 21 -4 28 -8 20 -13 14 0 -13 27 -14 14 -25 29
-25 34 0 5 -27 12 -61 15 -35 3 -82 16 -112 31 -60 30 -73 28 -23 -4 49 -30
46 -37 -4 -9 -29 17 -39 28 -35 40 6 16 -20 33 -41 28 -5 -2 -35 9 -66 24 -63
30 -72 32 -62 15 4 -6 -8 -2 -28 10 -61 38 -113 23 -138 -38 -7 -16 -16 -30
-20 -30 -13 0 -1 74 13 82 7 3 21 14 32 22 19 15 19 15 -10 12 -42 -4 -153
-58 -162 -78 -14 -31 -34 -4 -38 53 -2 30 -4 59 -5 64 -2 21 -28 -43 -39 -97
-14 -64 -40 -122 -58 -125 -9 -2 -8 6 2 30 20 49 65 280 65 336 0 30 -5 51
-12 53 -8 3 1 21 25 48 54 64 51 69 -66 121 -37 17 -50 19 -61 10 -11 -9 -16
-9 -21 -1 -5 8 -15 4 -32 -12 -33 -30 -44 -59 -29 -78 10 -13 9 -13 -7 -1 -12
10 -16 22 -13 37 7 27 72 125 79 118 5 -5 10 14 23 89 4 23 10 34 14 27 4 -6
10 -11 14 -11 20 3 26 0 20 -10 -4 -7 2 -9 16 -7 14 2 25 -3 27 -12 4 -13 3
-13 -7 0 -10 13 -11 13 -7 0 2 -8 8 -15 13 -15 5 0 14 -4 21 -8 6 -4 23 -8 37
-9 17 -2 22 -6 15 -14 -5 -6 -20 -9 -33 -7 -19 4 -24 0 -28 -21 -3 -14 -1 -23
3 -20 5 3 9 0 9 -5 0 -6 7 -11 15 -11 8 0 15 4 15 9 0 14 35 19 55 9 22 -13
36 1 41 43 2 18 12 41 21 51 19 21 64 21 71 1 2 -9 -5 -11 -27 -7 -24 5 -31 3
-31 -9 0 -9 4 -18 10 -22 5 -3 7 -11 4 -18 -3 -8 4 -13 17 -14 12 -1 26 -6 31
-11 14 -14 0 -52 -18 -52 -8 0 -14 -7 -14 -15 0 -8 4 -15 9 -15 5 0 16 -3 25
-6 9 -3 16 -1 16 5 0 6 -8 12 -17 12 -16 1 -16 2 0 6 11 3 16 11 13 19 -3 8
-1 14 4 14 15 0 28 -31 22 -53 -3 -14 -1 -18 7 -13 6 4 9 11 6 16 -3 4 2 11
11 14 8 3 12 2 9 -4 -3 -6 -2 -10 4 -10 5 0 18 -17 28 -37 32 -66 268 -208
308 -185 12 6 12 11 0 35 -7 15 -10 27 -4 27 5 0 9 -3 9 -7 1 -5 9 -18 19 -30
l19 -23 45 26 c45 25 117 95 117 114 0 6 5 10 10 10 6 0 10 -5 10 -10 0 -15
-90 -109 -120 -126 -55 -30 -56 -31 -36 -53 22 -24 5 -29 -19 -5 -8 9 -22 13
-30 10 -15 -5 -109 29 -135 50 -24 19 -100 55 -100 47 0 -4 13 -21 29 -38 15
-16 52 -61 81 -100 29 -38 61 -73 72 -77 11 -4 16 -12 13 -18 -4 -6 5 -10 19
-10 14 0 26 -6 27 -12 0 -10 2 -10 5 -1 4 9 15 8 45 -2 27 -10 47 -11 64 -5
23 9 29 6 26 -12 0 -4 7 -4 16 -1 14 6 13 8 -5 24 -12 9 -31 15 -42 12 -11 -3
-20 -1 -20 5 0 15 43 23 52 9 5 -9 10 -9 20 1 12 12 1 16 -39 15 -7 -1 -11 3
-8 7 5 8 -19 32 -26 26 -2 -3 -9 6 -16 20 -12 27 -9 26 42 -11 38 -28 61 -36
107 -40 31 -3 41 1 60 27 13 17 37 47 53 66 32 38 38 46 85 103 17 20 30 39
30 43 0 3 -18 6 -40 6 -22 0 -40 -4 -40 -10 0 -5 -5 -10 -11 -10 -5 0 -8 4 -5
9 3 5 -9 20 -28 35 -19 14 -44 41 -56 61 -26 43 -35 44 -49 5 -5 -16 -15 -30
-22 -30 -8 0 -8 4 1 15 7 8 10 26 8 39 -4 17 -1 23 9 19 16 -6 11 6 -30 84
-34 66 -61 139 -82 227 -9 38 -21 81 -27 95 -5 14 -11 40 -13 57 -4 44 -47
107 -104 152 -48 38 -73 50 -141 70 l-35 10 44 1 c46 1 154 -32 182 -56 14
-12 18 -12 22 -1 2 7 8 10 12 5 5 -4 0 -14 -11 -21 -19 -15 -19 -15 0 -33 10
-10 16 -13 12 -7 -3 7 1 15 10 18 8 3 13 10 9 15 -3 5 -1 12 5 16 5 3 10 3 11
-2 4 -43 7 -54 12 -60 4 -3 7 8 7 26 0 18 4 30 10 26 5 -3 7 -12 4 -19 -3 -7
2 -19 11 -26 16 -14 21 -35 5 -25 -5 3 -17 2 -27 -3 -15 -9 -14 -11 5 -21 22
-12 26 -51 5 -51 -7 0 -13 -5 -13 -11 0 -6 7 -9 15 -5 8 3 15 2 15 -3 0 -5 13
-14 30 -21 17 -7 30 -16 30 -21 0 -14 -18 -11 -23 4 -3 7 -6 5 -6 -5 -1 -10
-5 -18 -11 -18 -5 0 -10 -7 -10 -16 0 -8 4 -13 9 -10 15 10 21 -22 6 -34 -8
-7 -12 -16 -9 -21 8 -14 24 -10 24 6 0 8 4 15 9 15 6 0 9 12 8 28 -1 19 2 26
12 24 8 -2 18 3 22 10 7 10 9 10 9 0 0 -7 -7 -15 -15 -18 -17 -7 -20 -34 -4
-34 7 0 9 -12 6 -32 -3 -18 -3 -27 0 -20 2 6 16 12 30 12 19 0 24 4 19 16 -3
9 -6 20 -6 25 0 4 -6 6 -14 3 -8 -3 -17 -1 -20 4 -3 5 2 9 10 8 16 -1 26 20
25 56 0 10 6 15 14 12 7 -3 16 0 21 7 4 8 3 10 -4 5 -14 -9 -16 13 -3 47 8 21
14 23 68 21 33 -1 64 3 72 9 11 10 13 7 8 -13 -4 -14 -4 -19 -1 -12 8 18 24
15 24 -5 1 -16 3 -15 19 4 16 20 21 21 31 8 7 -8 18 -15 24 -14 7 0 6 2 -1 6
-7 2 -13 15 -13 27 0 13 -5 37 -11 55 -22 64 -1 39 45 -52 30 -61 58 -102 79
-117 19 -14 26 -17 18 -7 -8 10 -9 17 -3 17 6 0 13 -4 16 -9 3 -5 16 -9 28 -9
13 0 28 -1 33 -3 21 -7 122 13 170 33 49 21 127 69 153 95 7 7 18 14 23 14 5
1 15 2 22 3 6 1 11 7 10 12 -1 7 8 9 22 6 15 -2 25 0 25 8 0 7 8 9 20 5 13 -4
20 -2 20 7 0 10 3 9 10 -2 8 -12 10 -12 10 5 0 17 2 17 10 5 8 -13 13 -13 31
-2 11 8 18 9 14 3 -3 -6 -1 -11 4 -11 6 0 11 5 11 10 0 16 17 11 24 -7 4 -10
4 -14 0 -10 -4 4 -13 2 -20 -3 -6 -6 -18 -9 -25 -8 -8 2 -13 -3 -11 -10 1 -6
-1 -11 -5 -10 -12 2 -61 -20 -64 -30 -2 -4 -58 -28 -124 -52 -222 -81 -324
-127 -282 -127 22 0 126 -86 126 -105 1 -9 7 -21 14 -25 13 -8 92 -108 135
-172 46 -68 141 -174 187 -209 26 -21 27 -23 8 -19 -29 6 -29 1 0 -37 13 -17
36 -53 52 -81 52 -92 120 -142 204 -152 40 -4 51 -2 62 13 9 13 27 19 54 20
22 0 53 9 69 19 l28 19 -80 21 c-74 20 -172 64 -260 117 -41 25 -35 35 7 14
17 -9 50 -18 73 -20 58 -6 76 -13 126 -54 41 -33 136 -67 155 -55 5 3 7 13 4
23 -5 19 9 50 23 50 6 0 9 -3 8 -7 -3 -8 5 -13 20 -13 12 0 34 51 27 59 -4 3
-13 -3 -21 -13 -7 -11 -16 -17 -20 -14 -9 10 173 191 186 183 8 -5 8 -10 -1
-21 -6 -7 -16 -11 -22 -7 -6 3 -7 1 -3 -6 5 -7 -9 -28 -34 -54 -45 -45 -79
-108 -80 -144 0 -13 4 -23 10 -23 13 0 71 51 197 174 99 96 102 100 89 125 -9
17 -11 34 -5 48 9 24 4 29 -111 104 -30 20 -68 48 -83 63 -16 14 -32 24 -36
22 -4 -3 -8 1 -8 8 0 7 53 -19 124 -61 137 -81 156 -87 143 -45 -29 97 -93
259 -106 269 -9 7 -14 19 -11 27 4 9 -2 36 -12 59 -13 31 -16 48 -9 58 8 11 9
10 4 -3 -3 -10 -2 -18 2 -18 4 0 16 -21 26 -46 l19 -46 146 6 c407 19 460 26
461 57 0 4 -46 39 -102 78 -57 40 -150 106 -208 147 -58 41 -128 90 -157 110
l-52 35 -73 -53 c-40 -29 -82 -62 -93 -73 -21 -21 -27 -75 -10 -87 5 -4 6 -11
1 -15 -8 -7 -19 8 -16 22 0 3 -6 13 -15 21 -13 14 -18 14 -33 2 -9 -7 -21 -16
-27 -20 -5 -4 -37 -30 -70 -56 -89 -72 -191 -142 -205 -142 -8 0 -10 -3 -7 -7
4 -3 2 -12 -3 -18 -8 -9 -2 -14 22 -20 29 -6 30 -8 13 -15 -11 -4 -24 -5 -28
-3 -19 11 -69 13 -81 4 -8 -6 -20 -9 -29 -5 -8 3 -18 1 -22 -5 -6 -11 -35 9
-35 25 0 5 5 3 11 -3 6 -6 18 -9 25 -6 17 6 18 33 2 34 -10 0 -10 2 0 6 6 2
10 9 6 14 -3 5 3 9 14 9 28 0 62 37 62 68 0 32 29 80 30 50 0 -10 6 -18 13
-18 7 0 8 -3 2 -8 -13 -9 -35 -58 -35 -77 0 -34 66 -6 135 57 22 20 67 58 100
85 33 26 69 56 79 66 11 9 23 17 28 17 4 0 8 9 8 20 0 11 3 19 8 19 20 -3 37
6 112 66 l81 64 -65 47 c-36 26 -62 52 -59 57 3 6 1 7 -6 3 -10 -7 -68 41 -59
49 2 1 50 -28 107 -65 l105 -68 95 72 c93 70 128 103 120 110 -6 5 -167 52
-239 71 -36 9 -99 25 -140 35 -111 29 -121 29 -153 -3 -15 -15 -33 -24 -39
-21 -13 8 -2 -12 20 -39 8 -9 12 -20 9 -24 -4 -3 -7 -1 -7 5 0 7 -7 12 -16 12
-8 0 -12 -4 -9 -10 3 -5 2 -10 -3 -10 -6 0 -13 7 -16 16 -3 8 -2 12 4 9 12 -8
13 5 1 24 -7 11 -12 10 -22 -8 -8 -11 -20 -21 -28 -21 -11 0 -11 3 0 18 7 9 9
14 5 10 -5 -4 -15 -3 -21 2 -15 12 -82 -34 -118 -82 -26 -34 -97 -177 -97
-195 0 -6 -7 -14 -16 -17 -9 -4 -14 -13 -10 -22 3 -8 2 -12 -4 -9 -6 3 -10 -1
-10 -9 0 -9 -7 -16 -15 -16 -9 0 -12 -6 -9 -15 6 -13 -6 -20 -29 -16 -4 0 -6
-4 -5 -11 2 -7 -1 -12 -7 -13 -16 -1 -47 -21 -48 -31 -1 -5 -6 -8 -11 -6 -14
5 -96 -21 -96 -30 0 -4 -5 -8 -10 -8 -6 0 -5 8 2 20 7 11 19 20 27 20 8 0 11
3 7 8 -4 4 -47 7 -94 7 -71 0 -96 5 -135 24 -80 39 -177 149 -201 229 -12 37
12 25 30 -15 16 -34 63 -102 89 -128 74 -75 248 -116 251 -60 3 55 3 55 42 55
81 0 172 65 217 155 11 22 27 46 35 53 8 8 9 11 3 7 -8 -4 -11 -1 -7 9 3 9 11
14 17 13 7 -1 11 6 11 15 -1 10 2 16 6 13 4 -3 19 12 34 33 54 76 131 132 247
178 75 29 109 38 105 28 -8 -20 1 -18 138 20 66 19 189 53 271 76 220 61 598
171 606 176 4 2 13 20 19 40 25 76 136 99 188 38z m-2124 -771 c51 -57 47 -74
-5 -20 -38 38 -85 136 -93 192 -4 28 2 16 22 -40 21 -59 41 -94 76 -132z
m-179 107 c3 -5 1 -10 -4 -10 -6 0 -11 5 -11 10 0 6 2 10 4 10 3 0 8 -4 11
-10z m859 -54 c-3 -15 -8 -25 -11 -23 -2 3 -1 17 3 31 3 15 8 25 11 23 2 -3 1
-17 -3 -31z m-513 -165 c-24 -24 -40 -28 -21 -6 7 8 9 15 4 16 -5 0 0 4 11 8
28 12 30 6 6 -18z m-41 -21 c0 -5 -5 -10 -11 -10 -5 0 -7 5 -4 10 3 6 8 10 11
10 2 0 4 -4 4 -10z m869 -192 l11 -33 -20 24 c-11 12 -17 27 -14 32 8 14 11
11 23 -23z m-459 -48 c0 -5 -1 -10 -2 -10 -2 0 -34 -13 -73 -29 -105 -42 -405
-109 -382 -85 5 5 45 16 90 25 72 15 98 21 142 33 64 17 100 29 150 50 68 28
75 30 75 16z m160 -196 c0 -2 -9 0 -20 6 -11 6 -20 13 -20 16 0 2 9 0 20 -6
11 -6 20 -13 20 -16z m-2081 -214 c0 -13 -1 -13 -6 0 -4 8 -12 21 -20 28 -7 7
-13 21 -13 30 0 12 7 7 20 -13 11 -16 20 -37 19 -45z m1695 -198 c3 -5 -1 -9
-9 -9 -8 0 -12 4 -9 9 3 4 7 8 9 8 2 0 6 -4 9 -8z m-2353 -437 c-18 -6 -29
-13 -26 -17 4 -4 -4 -4 -17 0 -18 5 -19 7 -5 10 9 2 17 7 17 12 0 10 41 18 54
11 6 -2 -5 -10 -23 -16z m2619 -69 c0 -11 -19 -15 -25 -6 -3 5 1 10 9 10 9 0
16 -2 16 -4z m316 -52 c73 -61 58 -77 -16 -18 -33 26 -57 51 -54 55 8 14 14
11 70 -37z m-1346 11 c-7 -8 -20 -15 -28 -15 -13 0 -12 3 4 15 25 19 40 19 24
0z m-1396 -30 c4 -10 -1 -15 -14 -15 -11 0 -20 4 -20 10 0 5 -6 7 -14 4 -8 -3
-16 -1 -19 3 -3 5 9 10 27 11 23 2 36 -3 40 -13z m642 -161 c-37 -20 -46 -28
-35 -35 8 -5 12 -9 9 -9 -3 -1 -32 -3 -66 -5 -33 -3 -88 -16 -122 -29 -34 -14
-62 -23 -62 -20 0 14 174 89 255 109 72 19 76 17 21 -11z m1000 -139 c0 -47
-5 -85 -10 -85 -5 0 -6 -14 -2 -30 3 -17 2 -29 -3 -26 -5 3 -15 -2 -22 -11
-11 -13 -11 -17 -1 -20 6 -3 10 -9 6 -14 -3 -5 2 -16 10 -25 9 -9 16 -11 16
-4 0 6 5 8 11 4 12 -7 89 25 89 38 0 5 8 4 18 -1 11 -6 24 -6 33 0 35 22 42 6
9 -24 -42 -38 -50 -62 -20 -54 19 5 28 -7 13 -16 -5 -3 -48 -1 -97 4 -70 7
-95 14 -113 31 -26 24 -50 85 -56 146 l-5 42 23 -22 c14 -14 19 -25 13 -29 -7
-4 -7 -9 1 -13 6 -4 11 -4 12 1 0 4 2 19 5 33 3 19 2 21 -6 10 -8 -12 -10 -9
-10 14 0 20 4 27 14 23 10 -4 12 0 9 14 -4 13 -1 19 8 17 7 -2 18 11 24 27 10
30 24 55 29 55 2 0 3 -38 2 -85z m341 57 c0 -10 -11 -26 -24 -36 -23 -17 -23
-17 -23 13 0 24 3 28 20 24 16 -4 19 -2 13 12 -4 12 -3 16 5 11 6 -3 10 -14 9
-24z m61 21 c-9 -2 -20 -14 -24 -25 -4 -15 -8 -17 -14 -8 -11 17 10 39 35 38
16 0 17 -1 3 -5z m-441 -45 c-3 -8 -6 -5 -6 6 -1 11 2 17 5 13 3 -3 4 -12 1
-19z m-67 3 c0 -6 -4 -12 -8 -15 -5 -3 -9 1 -9 9 0 8 4 15 9 15 4 0 8 -4 8 -9z
m-339 -141 c5 0 9 -5 9 -11 0 -8 -5 -8 -15 1 -8 7 -15 9 -15 5 0 -5 -2 -6 -5
-3 -3 3 -2 14 2 24 7 17 8 17 11 2 2 -10 8 -18 13 -18z m472 -50 c3 -11 1 -18
-4 -14 -5 3 -9 12 -9 20 0 20 7 17 13 -6z m-18 -30 c3 -5 1 -10 -4 -10 -6 0
-11 5 -11 10 0 6 2 10 4 10 3 0 8 -4 11 -10z m530 -26 c11 -4 60 -34 110 -66
55 -35 93 -54 99 -48 6 6 4 15 -4 25 -9 11 -9 15 -1 15 20 0 91 -40 91 -51 0
-6 9 -8 20 -4 12 4 20 2 20 -5 0 -6 8 -9 18 -6 13 4 18 1 18 -13 0 -12 -6 -17
-17 -14 -14 4 -16 0 -12 -16 3 -12 10 -24 16 -28 5 -3 7 -2 4 4 -8 13 93 17
123 4 21 -9 14 -10 -35 -9 -75 3 -102 -10 -86 -41 10 -17 9 -21 -4 -21 -9 0
-26 5 -37 11 -18 10 -20 9 -15 -5 8 -20 0 -21 -19 -1 -23 23 -31 18 -39 -21
-3 -20 -9 -34 -11 -31 -3 3 -14 40 -25 82 -11 43 -27 88 -35 101 -17 26 -83
66 -139 84 -42 14 -107 68 -78 65 10 -1 27 -6 38 -11z m-335 -54 c0 -5 -5 -10
-11 -10 -5 0 -7 5 -4 10 3 6 8 10 11 10 2 0 4 -4 4 -10z m-852 -17 c-10 -2
-26 -2 -35 0 -10 3 -2 5 17 5 19 0 27 -2 18 -5z m414 -64 c18 -1 49 1 68 4
l35 7 -30 -15 c-50 -24 -155 -14 -155 15 0 6 9 6 25 0 13 -5 39 -10 57 -11z
m1548 -25 c0 -8 -19 -13 -24 -6 -3 5 1 9 9 9 8 0 15 -2 15 -3z m-24 -53 c-4
-6 -14 -11 -22 -11 -12 0 -13 4 -3 21 7 14 14 18 21 11 6 -6 7 -15 4 -21z
m-276 -36 c11 -13 10 -14 -4 -9 -9 3 -16 10 -16 15 0 13 6 11 20 -6z m243 -22
c-3 -7 -9 -13 -15 -13 -5 0 -7 -4 -4 -9 3 -5 -1 -11 -9 -15 -8 -3 -15 -10 -15
-16 0 -6 5 -8 11 -4 7 4 4 -6 -6 -23 -9 -16 -23 -30 -30 -30 -13 0 29 96 47
108 6 3 9 9 9 13 -3 23 0 30 8 17 5 -8 7 -20 4 -28z m-1973 -136 c0 -6 -9 -2
-20 8 -11 10 -20 23 -20 28 0 6 9 2 20 -8 11 -10 20 -23 20 -28z m4117 18 c-5
-14 -29 -13 -34 2 -3 7 4 11 16 10 12 -1 20 -6 18 -12z m-2662 -25 c10 -11 16
-20 13 -20 -3 0 -13 9 -23 20 -10 11 -16 20 -13 20 3 0 13 -9 23 -20z m455 12
c0 -5 -8 -17 -18 -28 -10 -11 -17 -24 -15 -30 2 -6 -3 -11 -10 -11 -11 0 -12
6 -4 28 6 15 15 25 21 22 5 -4 7 1 3 10 -4 11 -1 17 8 17 8 0 15 -4 15 -8z
m-735 -33 c143 -53 224 -122 315 -269 33 -52 68 -106 79 -119 21 -27 45 -24
54 8 3 12 1 19 -4 15 -10 -6 -11 5 -15 106 -1 36 -5 77 -9 91 -4 16 -2 30 4
33 6 4 11 4 12 -1 0 -4 8 -64 17 -132 15 -111 19 -125 39 -132 18 -6 25 -4 34
13 8 16 8 19 -1 13 -8 -5 -11 -3 -8 5 2 7 12 14 21 16 20 3 20 3 7 -32 -6 -15
-8 -34 -6 -41 7 -17 18 -12 148 74 56 37 103 61 109 57 8 -4 9 -3 5 4 -3 6 2
16 13 22 12 6 22 6 26 1 3 -6 -41 -40 -97 -77 -131 -86 -179 -124 -173 -134 5
-8 42 -14 164 -24 86 -8 69 -13 -40 -14 -171 -1 -167 -6 137 -131 260 -107
274 -113 274 -122 0 -5 7 -5 17 -2 12 5 14 3 8 -7 -6 -10 -4 -12 11 -6 13 5
16 4 9 -3 -12 -12 -95 15 -95 31 0 5 -4 7 -8 4 -11 -6 -281 101 -303 120 -8 8
-23 14 -32 14 -9 0 -46 11 -84 24 -37 13 -91 26 -120 28 -50 5 -53 7 -152 110
-85 88 -115 113 -191 153 -50 26 -88 50 -86 53 13 12 80 -13 140 -54 38 -25
71 -43 73 -40 12 12 -65 109 -79 100 -5 -3 -7 -1 -6 5 4 15 -81 100 -122 121
-53 27 -138 50 -186 50 -66 0 -109 -24 -156 -88 -31 -41 -44 -52 -46 -39 -6
28 40 99 78 121 45 27 189 33 251 11 51 -18 54 -18 37 -1 -21 20 -71 44 -109
52 -42 8 -149 11 -149 4 0 -3 -13 -11 -29 -18 -16 -7 -58 -43 -95 -79 -36 -37
-66 -63 -66 -59 0 5 -6 3 -14 -3 -23 -19 -28 4 -6 29 11 13 20 27 20 31 0 4
10 9 23 11 12 2 21 9 20 16 -2 6 2 12 8 12 5 0 7 5 3 12 -5 7 -2 9 9 5 8 -3
18 0 20 7 3 7 20 16 37 20 23 4 30 10 27 20 -7 17 17 22 115 25 47 1 84 -5
123 -20z m315 -24 c7 -9 8 -15 2 -15 -5 0 -12 7 -16 15 -3 8 -4 15 -2 15 2 0
9 -7 16 -15z m-780 -69 c0 -3 -4 -8 -10 -11 -5 -3 -10 -1 -10 4 0 6 5 11 10
11 6 0 10 -2 10 -4z m825 -7 c11 -16 1 -19 -13 -3 -7 8 -8 14 -3 14 5 0 13 -5
16 -11z m-795 -69 c0 -5 -5 -10 -11 -10 -5 0 -7 5 -4 10 3 6 8 10 11 10 2 0 4
-4 4 -10z m1006 -136 c-25 -18 -31 -12 -14 15 8 14 16 17 23 10 7 -7 4 -15 -9
-25z m404 -52 c0 -7 4 -11 8 -8 5 3 9 -2 9 -10 0 -11 -6 -9 -23 7 -13 12 -21
26 -17 32 4 6 1 7 -6 3 -13 -8 -43 23 -35 36 3 4 -2 5 -10 2 -16 -6 -22 7 -9
20 9 8 83 -64 83 -82z m-1197 38 c50 40 27 2 -33 -53 -48 -45 -69 -57 -106
-63 -59 -9 -154 1 -196 21 -26 12 -27 14 -8 10 133 -27 152 -28 188 -16 45 16
92 64 92 95 0 35 14 41 26 11 l10 -26 27 21z m787 -14 c0 -2 -7 -6 -15 -10 -8
-3 -15 -1 -15 4 0 6 7 10 15 10 8 0 15 -2 15 -4z m483 -91 c4 3 5 2 2 -2 -3
-3 1 -13 7 -22 7 -9 -2 -3 -20 13 -18 17 -32 32 -32 34 0 3 8 -2 18 -11 10
-10 22 -15 25 -12z m127 -6 c0 -4 -7 -6 -15 -3 -8 4 -15 10 -15 15 0 4 7 6 15
3 8 -4 15 -10 15 -15z m135 -9 c-3 -5 -12 -10 -18 -10 -7 0 -6 4 3 10 19 12
23 12 15 0z m-125 -36 c0 -1 -9 0 -20 3 -11 3 -20 12 -20 19 0 11 5 10 20 -3
11 -10 20 -18 20 -19z m-25 -27 c6 0 11 -7 11 -16 1 -9 5 -25 9 -35 9 -20 -3
-11 -59 47 -19 19 -19 19 5 12 13 -5 29 -8 34 -8z m121 -119 c16 -17 22 -27
14 -22 -8 4 -21 9 -28 10 -20 3 -42 25 -36 35 9 15 19 10 50 -23z m371 -60
c-2 -13 -4 -3 -4 22 0 25 2 35 4 23 2 -13 2 -33 0 -45z m-309 -10 c-2 -7 4
-12 12 -13 8 0 15 -7 15 -15 0 -8 7 -15 16 -15 22 0 126 -99 126 -119 0 -18 0
-19 -119 93 -37 35 -65 68 -62 72 8 13 14 11 12 -3z m299 -50 c-3 -8 -6 -5 -6
6 -1 11 2 17 5 13 3 -3 4 -12 1 -19z m157 -13 c-4 -8 -11 -12 -16 -9 -6 4 -5
10 3 15 19 12 19 11 13 -6z m-137 -52 c-3 -10 -5 -2 -5 17 0 19 2 27 5 18 2
-10 2 -26 0 -35z m287 28 c7 -11 -17 -32 -41 -35 -10 -2 -18 -8 -18 -14 0 -6
-4 -14 -9 -19 -5 -5 -6 -3 -2 5 4 6 3 12 -2 12 -13 0 -33 -25 -26 -32 3 -3
-19 -23 -48 -44 -29 -21 -57 -43 -61 -49 -5 -6 -7 -3 -3 8 3 9 0 17 -6 17 -7
0 8 13 33 29 24 16 71 52 104 79 63 53 70 57 79 43z m-642 -63 c61 -24 104
-46 99 -51 -11 -11 -252 83 -245 95 7 11 2 12 146 -44z m350 -70 c-2 -21 -8
-38 -14 -38 -5 0 -6 5 -3 10 11 18 -42 10 -59 -9 -17 -19 -56 -18 -56 1 0 5
-4 6 -10 3 -5 -3 -10 -2 -10 4 0 6 -7 7 -17 4 -10 -4 -14 -2 -9 5 3 6 -3 13
-15 17 -11 4 -19 9 -16 11 2 3 28 -5 57 -16 29 -11 55 -18 58 -15 3 3 -5 17
-19 32 -16 18 -17 22 -5 13 18 -14 19 -13 13 3 -6 17 -5 17 21 -1 37 -27 72
-12 73 32 1 30 1 30 8 6 4 -14 6 -42 3 -62z m76 27 c-6 -13 -15 -22 -19 -19
-11 6 8 44 21 44 6 0 5 -10 -2 -25z m37 -125 c-10 -46 -21 -35 -16 17 2 36 5
43 13 29 5 -9 6 -30 3 -46z m3260 -2258 c25 -60 97 -132 157 -157 27 -11 48
-22 48 -25 0 -3 -21 -14 -48 -25 -60 -25 -132 -97 -157 -157 -11 -27 -23 -48
-26 -48 -3 0 -12 19 -20 42 -18 55 -101 139 -161 164 -27 10 -48 21 -48 24 0
3 21 14 48 25 60 25 132 97 157 157 11 27 22 48 25 48 3 0 14 -21 25 -48z"/>
<path d="M6065 7094 c-232 -66 -506 -142 -682 -190 -34 -9 -70 -25 -79 -35
-16 -18 -15 -19 12 -30 35 -13 55 -18 115 -29 25 -5 83 -19 130 -33 137 -41
253 -66 262 -58 5 5 3 18 -4 30 -12 18 -11 23 3 37 16 16 17 15 24 -9 3 -15
11 -27 16 -27 14 0 196 146 451 361 49 42 59 60 30 58 -10 -1 -135 -34 -278
-75z m-290 -203 c3 -5 1 -12 -5 -16 -5 -3 -10 1 -10 9 0 18 6 21 15 7z m-25
-32 c0 -11 -4 -18 -10 -14 -5 3 -7 12 -3 20 7 21 13 19 13 -6z m75 -37 c-2 -9
-4 -19 -4 -22 -1 -3 -5 1 -10 9 -10 16 -3 44 9 36 5 -3 7 -13 5 -23z"/>
<path d="M6340 7092 c-25 -21 -135 -112 -245 -201 -182 -148 -223 -186 -213
-196 13 -12 413 -113 418 -105 13 21 112 509 107 524 -9 23 -17 20 -67 -22z"/>
<path d="M6528 7125 c-3 -4 16 -57 42 -118 118 -277 249 -584 261 -610 9 -20
17 -26 31 -21 10 3 35 -4 56 -16 l38 -21 121 66 122 67 -2 51 -2 51 -190 164
c-248 213 -454 386 -464 390 -4 1 -10 0 -13 -3z"/>
<path d="M6445 7088 c-11 -37 -114 -512 -111 -516 2 -2 73 -25 158 -51 84 -27
185 -62 225 -79 l71 -30 -38 91 c-34 83 -197 466 -237 560 -12 28 -22 37 -40
37 -13 0 -25 -6 -28 -12z"/>
<path d="M5766 6621 c-25 -21 -72 -60 -105 -86 -34 -25 -61 -49 -61 -53 0 -4
33 -29 72 -57 166 -115 287 -199 356 -245 l73 -49 32 19 c18 11 40 20 49 20
10 0 21 8 26 18 18 33 84 354 76 362 -5 4 -88 29 -184 54 -96 26 -183 50 -192
52 -13 4 -18 0 -18 -15 0 -28 -36 -28 -43 -1 -8 30 -31 24 -81 -19z m104 -26
c0 -12 -19 -12 -23 0 -4 9 -1 12 9 8 7 -3 14 -7 14 -8z m-46 -30 c-16 -12 -44
-10 -44 2 0 3 7 2 15 -1 9 -3 18 1 21 9 4 8 10 12 16 9 5 -3 1 -12 -8 -19z"/>
<path d="M6306 6468 c-9 -40 -26 -123 -39 -184 l-24 -110 39 -33 38 -32 83 27
c256 84 368 127 363 139 -2 8 3 29 13 49 17 33 17 36 2 50 -30 27 -145 74
-297 120 -82 26 -152 46 -155 46 -4 0 -14 -33 -23 -72z"/>
<path d="M7105 6384 c-144 -81 -144 -80 -138 -104 3 -11 12 -20 19 -20 8 0
177 -40 376 -90 342 -85 398 -97 398 -85 0 7 -53 54 -230 203 l-154 131 -57
-6 c-44 -4 -62 -2 -80 11 -13 9 -26 16 -29 16 -3 0 -50 -25 -105 -56z"/>
<path d="M4635 6380 c-3 -6 1 -7 9 -4 18 7 21 14 7 14 -6 0 -13 -4 -16 -10z"/>
<path d="M3493 6231 c4 -28 12 -34 14 -11 1 11 -2 22 -8 25 -5 4 -8 -3 -6 -14z"/>
<path d="M6953 6211 c-14 -22 5 -56 316 -561 264 -427 244 -398 281 -395 17 1
33 5 36 8 3 3 25 68 49 144 23 76 71 227 105 336 l63 198 -22 23 c-12 13 -25
36 -30 52 -7 27 -12 29 -242 86 -206 51 -531 128 -541 128 -2 0 -8 -8 -15 -19z"/>
<path d="M6575 6159 c-99 -34 -195 -67 -212 -73 -23 -7 -33 -17 -33 -31 0 -11
-3 -29 -6 -40 -4 -17 31 -45 230 -179 233 -158 234 -158 265 -145 l31 14 0
225 0 225 -40 33 c-21 17 -42 32 -47 32 -4 0 -89 -28 -188 -61z"/>
<path d="M6886 6148 c-3 -13 -6 -119 -6 -236 l0 -212 24 -11 c31 -14 50 -51
49 -94 -1 -33 3 -37 244 -201 245 -167 283 -188 283 -163 0 26 -557 930 -577
936 -6 2 -13 -6 -17 -19z"/>
<path d="M3760 6139 c0 -5 5 -7 10 -4 6 3 10 8 10 11 0 2 -4 4 -10 4 -5 0 -10
-5 -10 -11z"/>
<path d="M3925 6130 c-7 -11 18 -24 35 -18 6 2 1 9 -9 15 -13 8 -22 9 -26 3z"/>
<path d="M3550 6085 c7 -8 17 -15 22 -15 5 0 3 7 -6 15 -8 8 -18 15 -22 15 -3
0 -1 -7 6 -15z"/>
<path d="M3917 6033 c-4 -3 -7 -12 -7 -20 0 -15 26 -18 35 -3 3 6 -1 7 -10 4
-11 -5 -14 -2 -9 10 6 17 2 21 -9 9z"/>
<path d="M3957 6007 c-8 -24 46 -92 64 -81 5 3 25 0 46 -5 27 -8 41 -7 52 2
11 9 13 9 8 0 -6 -9 1 -12 22 -10 24 2 27 5 18 16 -9 11 -9 13 0 8 6 -4 18 -1
26 7 14 15 27 12 27 -6 0 -5 -4 -7 -9 -4 -5 3 -11 -1 -15 -9 -7 -18 -5 -18 27
-2 l25 13 -21 14 c-12 8 -26 14 -30 15 -4 0 -12 7 -18 15 -8 11 -12 12 -16 2
-2 -6 -8 -10 -12 -7 -5 2 -25 7 -45 9 -32 4 -38 1 -46 -20 -5 -13 -12 -24 -14
-24 -3 0 -3 6 0 13 5 15 -19 38 -58 55 -20 8 -28 8 -31 -1z m158 -55 c-3 -3
-11 0 -18 7 -9 10 -8 11 6 5 10 -3 15 -9 12 -12z m-85 4 c0 -3 -4 -8 -10 -11
-5 -3 -10 -1 -10 4 0 6 5 11 10 11 6 0 10 -2 10 -4z"/>
<path d="M5633 6013 c-111 -3 -133 -6 -133 -19 0 -8 18 -59 41 -112 70 -166
65 -159 106 -160 20 -1 44 -9 55 -18 17 -17 20 -16 51 6 45 33 337 272 337
275 0 2 -3 10 -6 19 -6 17 -60 18 -451 9z"/>
<path d="M3910 5980 c0 -5 5 -10 10 -10 6 0 10 5 10 10 0 6 -4 10 -10 10 -5 0
-10 -4 -10 -10z"/>
<path d="M3940 5960 c0 -5 5 -10 10 -10 6 0 10 5 10 10 0 6 -4 10 -10 10 -5 0
-10 -4 -10 -10z"/>
<path d="M3602 5944 c-8 -8 -11 -22 -8 -30 9 -24 23 -15 23 16 0 17 -1 30 -1
30 -1 -1 -7 -8 -14 -16z"/>
<path d="M6276 5945 c-17 -13 -17 -17 10 -97 51 -155 212 -590 220 -598 5 -4
23 -10 39 -13 29 -5 34 -1 139 150 95 134 108 158 98 174 -7 10 -12 36 -12 56
l-1 38 -225 150 c-124 83 -231 151 -237 152 -7 2 -20 -4 -31 -12z"/>
<path d="M6019 5882 c-48 -37 -130 -103 -182 -147 -139 -116 -138 -120 75
-244 46 -26 175 -103 287 -170 113 -66 210 -121 215 -121 6 0 21 8 34 18 l22
17 -39 115 c-21 63 -69 196 -106 295 -37 99 -74 201 -84 227 -14 43 -19 48
-47 48 -16 0 -39 7 -50 15 -10 8 -23 14 -29 14 -5 0 -49 -30 -96 -67z"/>
<path d="M3657 5929 c-9 -5 -22 -7 -27 -4 -6 3 -7 -1 -4 -9 8 -21 17 -20 45 4
25 20 16 27 -14 9z"/>
<path d="M3864 5918 c-10 -27 -11 -34 -13 -51 -1 -9 -11 -12 -31 -9 -33 5 -40
-11 -12 -28 11 -8 13 -13 5 -16 -7 -3 -9 -12 -6 -20 5 -13 7 -13 14 -2 6 9 9
7 9 -9 0 -14 6 -23 15 -23 8 0 15 -4 15 -9 0 -5 3 -16 6 -24 4 -12 0 -14 -17
-10 -19 5 -21 3 -17 -15 4 -13 1 -22 -5 -22 -9 0 -8 -3 0 -8 9 -6 10 -17 4
-39 -7 -25 -6 -33 6 -37 8 -3 11 -10 8 -16 -3 -5 -2 -10 3 -10 5 0 12 9 15 20
3 13 0 20 -9 20 -8 0 -14 7 -14 15 0 19 7 19 25 1 14 -14 10 -56 -8 -67 -5 -4
-5 -9 0 -12 13 -8 73 32 73 49 0 7 9 18 20 24 25 13 26 30 2 25 -25 -4 -46 10
-37 25 6 9 9 9 15 0 5 -9 8 -8 12 2 4 10 -6 13 -39 13 -24 0 -40 -1 -34 -3 6
-2 9 -8 6 -12 -10 -16 -33 1 -28 21 3 10 9 17 13 14 5 -3 12 0 15 5 5 8 11 6
18 -3 8 -10 18 -12 32 -7 11 5 14 9 8 9 -7 1 -13 6 -13 11 0 6 12 4 29 -4 16
-9 31 -13 33 -11 3 3 13 -4 23 -15 23 -26 34 -25 76 3 91 60 228 67 315 15 19
-11 34 -17 34 -14 0 13 -43 91 -67 123 -34 47 -50 53 -160 59 -105 5 -227 27
-282 50 -44 19 -48 18 -57 -8z m46 -328 c0 -5 -4 -10 -10 -10 -5 0 -10 5 -10
10 0 6 5 10 10 10 6 0 10 -4 10 -10z"/>
<path d="M7742 5642 c-135 -424 -127 -393 -98 -415 52 -38 57 -130 11 -186
l-25 -29 29 -79 c47 -129 166 -415 190 -458 l22 -40 -5 305 c-3 168 -9 502
-12 743 -4 241 -10 440 -14 442 -3 2 -48 -125 -98 -283z"/>
<path d="M4230 5909 c0 -5 5 -7 10 -4 6 3 10 8 10 11 0 2 -4 4 -10 4 -5 0 -10
-5 -10 -11z"/>
<path d="M3661 5844 c0 -11 3 -14 6 -6 3 7 2 16 -1 19 -3 4 -6 -2 -5 -13z"/>
<path d="M3710 5770 c0 -8 5 -22 10 -30 9 -13 10 -13 10 0 0 8 -5 22 -10 30
-9 13 -10 13 -10 0z"/>
<path d="M4182 5708 c-2 -10 -11 -18 -18 -18 -8 0 -14 -7 -14 -16 0 -13 -3
-14 -14 -5 -8 7 -16 8 -19 4 -9 -14 -10 -67 -2 -86 4 -10 5 -20 2 -23 -3 -3 2
-14 11 -25 20 -23 74 -25 92 -5 6 8 19 12 27 9 10 -4 14 -2 10 4 -5 7 0 9 13
6 12 -3 20 0 20 6 0 7 4 10 9 6 5 -3 16 4 24 16 9 13 17 16 22 10 3 -6 11 -11
17 -11 6 0 8 3 5 6 -3 4 -2 14 3 24 7 13 4 20 -16 30 -13 8 -23 19 -20 25 6
17 -20 60 -29 46 -5 -9 -11 -7 -21 6 -12 16 -13 16 -14 2 0 -12 -8 -16 -25
-15 -21 1 -23 3 -11 12 12 8 9 11 -16 11 -21 0 -32 -6 -36 -19z m138 -27 c0
-5 -7 -14 -15 -21 -12 -10 -15 -10 -15 2 0 8 3 18 7 21 9 10 23 9 23 -2z"/>
<path d="M2925 5707 c-4 -10 -5 -21 -1 -24 10 -10 18 4 13 24 -4 17 -4 17 -12
0z"/>
<path d="M2952 5709 c2 -7 10 -15 17 -17 8 -3 12 1 9 9 -2 7 -10 15 -17 17 -8
3 -12 -1 -9 -9z"/>
<path d="M3770 5694 c5 -12 7 -24 5 -25 -1 -2 3 -10 11 -17 13 -12 14 -10 8
13 -4 17 -2 30 6 35 8 5 3 9 -13 12 -23 4 -24 3 -17 -18z"/>
<path d="M3707 5703 c-12 -12 -7 -23 11 -23 14 0 15 -2 2 -10 -8 -5 -10 -10
-5 -10 6 0 3 -5 -5 -10 -13 -8 -12 -10 4 -10 11 0 16 -5 13 -13 -3 -7 6 -23
19 -36 31 -30 33 -5 3 33 -17 22 -19 30 -9 39 10 9 12 8 7 -5 -3 -10 0 -19 10
-22 11 -5 13 -2 8 11 -4 10 -9 27 -10 38 -2 11 -4 22 -4 25 -1 2 -6 -1 -13 -8
-15 -15 -32 -16 -23 -2 7 11 2 13 -8 3z"/>
<path d="M2818 5633 c7 -3 16 -2 19 1 4 3 -2 6 -13 5 -11 0 -14 -3 -6 -6z"/>
<path d="M2932 5608 c5 -15 37 -18 41 -3 1 6 -9 12 -22 13 -16 3 -22 -1 -19
-10z"/>
<path d="M3770 5611 c0 -5 5 -13 10 -16 6 -3 10 -2 10 4 0 5 -4 13 -10 16 -5
3 -10 2 -10 -4z"/>
<path d="M3810 5585 c0 -18 19 -40 26 -32 4 4 0 15 -9 24 -9 10 -17 13 -17 8z"/>
<path d="M2825 5550 c-3 -5 -1 -10 4 -10 6 0 11 5 11 10 0 6 -2 10 -4 10 -3 0
-8 -4 -11 -10z"/>
<path d="M5697 5543 c-11 -12 -34 -17 -71 -18 -52 0 -56 -2 -130 -69 -152
-136 -221 -204 -214 -212 4 -4 25 -10 45 -14 l38 -8 -39 -1 c-29 -1 -37 -4
-32 -16 6 -17 -9 -21 -19 -5 -12 19 -43 10 -84 -24 l-40 -34 32 -6 c18 -4 299
-6 625 -6 702 2 668 -7 460 118 -235 141 -532 312 -543 312 -6 0 -18 -8 -28
-17z"/>
<path d="M2970 5541 c0 -6 4 -13 10 -16 6 -3 7 1 4 9 -7 18 -14 21 -14 7z"/>
<path d="M4080 5529 c0 -6 -6 -9 -13 -6 -8 3 -14 -1 -14 -8 0 -7 10 -12 22
-11 16 1 21 6 17 19 -5 19 -12 23 -12 6z"/>
<path d="M4100 5531 c0 -5 5 -13 10 -16 6 -3 10 -2 10 4 0 5 -4 13 -10 16 -5
3 -10 2 -10 -4z"/>
<path d="M3945 5516 c-11 -8 -25 -12 -31 -9 -15 6 -33 -26 -27 -47 4 -12 3
-13 -5 -1 -14 19 -34 3 -26 -21 4 -14 3 -18 -5 -13 -7 4 -19 1 -27 -6 -11 -9
-12 -14 -3 -20 9 -5 8 -14 -5 -34 -10 -15 -13 -25 -8 -21 6 3 13 2 17 -4 3 -5
-3 -10 -14 -10 -15 0 -19 -5 -16 -21 6 -30 13 -35 28 -20 9 9 9 14 -3 21 -8 5
-10 10 -4 10 5 0 15 -5 20 -10 19 -19 204 144 204 180 0 38 -57 54 -95 26z"/>
<path d="M6907 5524 c-3 -4 -24 -6 -47 -6 -39 1 -43 -2 -94 -71 -120 -164
-159 -229 -147 -246 6 -9 16 -26 23 -39 l12 -23 388 3 c332 3 390 5 398 18 13
21 -14 42 -277 220 -209 141 -241 159 -256 144z"/>
<path d="M2960 5499 c0 -5 5 -7 10 -4 6 3 10 8 10 11 0 2 -4 4 -10 4 -5 0 -10
-5 -10 -11z"/>
<path d="M2802 5463 c-16 -22 -21 -40 -17 -54 7 -20 8 -19 27 11 10 18 18 42
16 54 -3 19 -5 18 -26 -11z"/>
<path d="M2901 5473 c12 -14 12 -16 -1 -11 -11 4 -16 -3 -17 -24 -2 -25 0 -28
12 -18 12 10 15 10 15 -1 0 -8 9 1 21 20 11 18 18 38 15 45 -2 6 -5 3 -5 -7
-1 -10 -6 -15 -11 -12 -6 4 -8 11 -5 16 4 5 -4 9 -16 9 -19 0 -20 -2 -8 -17z"/>
<path d="M2998 5463 c-10 -2 -42 -29 -72 -59 -31 -30 -64 -54 -75 -54 -38 0
-50 -53 -20 -88 9 -10 18 -26 22 -35 8 -20 21 -22 39 -4 31 30 97 77 107 77 6
0 11 6 11 13 0 8 3 7 9 -3 6 -8 24 -14 45 -13 20 1 34 -2 31 -6 -2 -4 2 -8 10
-8 8 0 15 4 15 7 0 13 -27 30 -34 22 -5 -4 -7 0 -6 8 4 29 0 41 -12 34 -10 -6
-10 -4 0 7 17 18 15 49 -3 49 -8 0 -15 5 -15 11 0 5 5 7 10 4 12 -7 13 5 2 21
-9 14 -42 23 -64 17z m32 -37 c0 -3 -4 -8 -10 -11 -5 -3 -10 -1 -10 4 0 6 5
11 10 11 6 0 10 -2 10 -4z m40 -116 c0 -5 -2 -10 -4 -10 -3 0 -8 5 -11 10 -3
6 -1 10 4 10 6 0 11 -4 11 -10z"/>
<path d="M3090 5365 c0 -8 2 -15 4 -15 2 0 6 7 10 15 3 8 1 15 -4 15 -6 0 -10
-7 -10 -15z"/>
<path d="M3111 5343 c-1 -17 5 -23 19 -23 11 0 20 5 20 10 0 6 -6 10 -14 10
-8 0 -17 6 -19 13 -3 6 -6 2 -6 -10z"/>
<path d="M3148 5308 c-8 -7 -18 -21 -21 -31 -5 -14 -3 -16 12 -8 10 6 21 7 25
3 4 -3 4 2 0 13 -6 18 -4 17 19 -4 36 -33 44 -22 9 12 -23 22 -31 25 -44 15z"/>
<path d="M3465 5200 c27 -12 43 -12 25 0 -8 5 -22 9 -30 9 -10 0 -8 -3 5 -9z"/>
<path d="M5145 5100 c3 -5 10 -10 16 -10 5 0 9 5 9 10 0 6 -7 10 -16 10 -8 0
-12 -4 -9 -10z"/>
<path d="M6713 5103 c-35 -2 -63 -8 -63 -12 0 -5 -11 -24 -24 -43 l-24 -36 94
-148 93 -149 36 4 c21 1 46 -4 59 -13 23 -14 27 -13 77 22 30 21 128 89 219
152 248 171 269 188 263 210 -5 19 -15 20 -337 18 -182 -1 -359 -3 -393 -5z"/>
<path d="M6095 4856 c-239 -136 -321 -188 -323 -203 -3 -23 30 -52 267 -236
130 -100 136 -104 160 -90 14 7 37 17 52 22 27 10 30 16 160 451 l59 194 -22
23 c-12 13 -24 23 -27 23 -3 0 -150 -83 -326 -184z"/>
<path d="M7284 4913 c-94 -65 -213 -146 -266 -181 l-96 -63 5 -39 c5 -33 1
-43 -23 -68 -16 -16 -36 -31 -44 -34 -13 -4 -16 -41 -18 -226 -3 -189 -1 -221
11 -216 13 5 538 788 601 897 20 33 24 47 14 47 -8 0 -90 -53 -184 -117z"/>
<path d="M7237 4595 c-312 -468 -351 -530 -341 -546 11 -19 57 -6 475 131
l407 134 6 34 c3 19 15 45 26 57 l21 22 -50 124 c-27 68 -79 196 -115 284 -36
88 -66 160 -66 161 0 1 -20 4 -45 6 l-45 3 -273 -410z"/>
<path d="M6529 4993 c-30 -5 -33 -14 -159 -430 l-66 -222 25 -19 26 -19 135
94 c257 178 257 178 252 213 -2 17 1 44 8 60 12 28 8 36 -70 162 -85 136 -109
169 -119 167 -3 -1 -18 -4 -32 -6z"/>
<path d="M4320 4913 c0 -15 15 -28 33 -29 23 -2 22 13 -2 26 -23 12 -31 13
-31 3z"/>
<path d="M5390 4896 c0 -2 14 -14 30 -26 17 -12 30 -19 30 -16 0 2 -13 14 -30
26 -16 12 -30 19 -30 16z"/>
<path d="M4651 4796 c-11 -13 -11 -17 3 -22 20 -8 46 2 46 17 0 6 -6 9 -14 6
-8 -3 -16 -1 -18 5 -2 6 -9 3 -17 -6z"/>
<path d="M3631 4723 c-6 -10 -11 -12 -11 -5 0 6 -5 12 -10 12 -7 0 -7 -6 0
-20 8 -15 8 -20 -2 -20 -8 0 -15 -12 -16 -27 -1 -16 2 -23 6 -18 4 6 14 10 22
10 10 0 14 8 12 28 -2 15 1 27 6 27 5 0 9 7 9 15 0 19 -4 19 -16 -2z"/>
<path d="M6739 4531 c-13 -8 -101 -68 -196 -133 l-171 -118 5 -43 c3 -23 8
-45 12 -48 7 -8 263 -122 312 -139 32 -12 38 -11 56 6 11 10 27 24 35 29 14 8
17 44 21 226 l5 215 -27 11 c-21 7 -33 6 -52 -6z"/>
<path d="M3760 4481 c0 -6 4 -13 10 -16 6 -3 7 1 4 9 -7 18 -14 21 -14 7z"/>
<path d="M3691 4448 c1 -12 4 -34 8 -48 l8 -25 13 28 c10 20 11 33 4 45 -17
26 -34 26 -33 0z"/>
<path d="M3743 4365 c-9 -25 4 -29 17 -6 7 15 7 21 0 21 -6 0 -13 -7 -17 -15z"/>
<path d="M3632 4154 c-7 -8 -11 -18 -7 -23 3 -5 0 -11 -7 -13 -7 -3 -5 -11 8
-26 24 -28 34 -28 27 1 -3 12 -5 34 -5 50 1 31 1 31 -16 11z"/>
<path d="M6355 4140 c-9 -10 -30 -24 -46 -30 l-29 -12 6 -92 c17 -256 19 -271
34 -267 8 2 23 4 32 5 9 0 15 3 13 6 -2 4 79 46 181 95 134 64 183 92 179 102
-3 8 -5 25 -5 37 0 24 11 18 -222 119 -121 53 -127 54 -143 37z"/>
<path d="M6390 3760 c-9 -6 -10 -10 -3 -10 6 0 15 5 18 10 8 12 4 12 -15 0z"/>
<path d="M7155 3669 c-11 -16 -1 -19 13 -3 7 8 8 14 3 14 -5 0 -13 -5 -16 -11z"/>
<path d="M6724 3318 l-19 -23 23 19 c12 11 22 21 22 23 0 8 -8 2 -26 -19z"/>
<path d="M6669 3273 l-24 -28 28 24 c15 14 27 26 27 28 0 8 -8 1 -31 -24z"/>
<path d="M5910 3406 c0 -3 9 -10 20 -16 11 -6 20 -8 20 -6 0 3 -9 10 -20 16
-11 6 -20 8 -20 6z"/>
<path d="M6060 3267 c0 -3 12 -12 26 -22 15 -9 23 -12 20 -6 -7 11 -46 35 -46
28z"/>
<path d="M6150 3186 c0 -2 8 -10 18 -17 15 -13 16 -12 3 4 -13 16 -21 21 -21
13z"/>
<path d="M6430 3090 c-9 -6 -10 -10 -3 -10 6 0 15 5 18 10 8 12 4 12 -15 0z"/>
</g>
</svg>
