<?xml version="1.0" standalone="no"?>
<!DOCTYPE svg PUBLIC "-//W3C//DTD SVG 20010904//EN"
 "http://www.w3.org/TR/2001/REC-SVG-20010904/DTD/svg10.dtd">
<svg version="1.0" xmlns="http://www.w3.org/2000/svg"
 width="1408.000000pt" height="768.000000pt" viewBox="0 0 1408.000000 768.000000"
 preserveAspectRatio="xMidYMid meet">

<g transform="translate(0.000000,768.000000) scale(0.100000,-0.100000)"
fill="#000000" stroke="none">
<path d="M6250 4703 c-19 -10 -45 -34 -58 -53 -20 -29 -23 -44 -20 -88 4 -45
10 -59 40 -89 42 -42 107 -55 156 -31 27 14 31 13 62 -12 l33 -27 -31 -57
c-32 -56 -82 -191 -82 -220 0 -12 11 -16 44 -16 43 0 44 1 50 38 5 32 59 154
84 190 7 10 21 3 63 -29 30 -23 57 -45 62 -49 4 -3 -3 -26 -17 -51 -22 -40
-31 -68 -50 -151 l-6 -28 -248 0 -247 1 -20 32 c-29 46 -102 80 -152 71 -44
-8 -108 -66 -118 -107 -19 -74 42 -167 118 -181 52 -10 120 22 148 68 l21 36
248 0 249 0 10 -52 c6 -29 23 -77 36 -106 14 -30 25 -58 25 -63 0 -10 -98 -89
-111 -89 -15 0 -66 100 -86 166 l-18 64 -42 0 c-29 0 -43 -4 -43 -13 0 -30 35
-127 72 -201 l40 -80 -33 -26 c-31 -26 -34 -27 -70 -12 -99 39 -199 -43 -187
-152 6 -54 32 -90 80 -112 101 -46 214 33 204 143 l-3 42 129 101 129 102 38
-35 c66 -59 146 -97 254 -121 26 -6 27 -8 27 -76 0 -63 -2 -70 -20 -70 -78 0
-242 65 -315 125 l-42 34 -37 -25 c-20 -14 -36 -27 -36 -29 0 -2 24 -22 53
-44 108 -82 252 -135 399 -147 l78 -7 0 116 0 117 28 5 c81 16 122 28 172 52
74 36 183 145 214 215 24 55 42 121 29 103 -4 -6 -17 -11 -28 -10 -11 0 -23
-4 -27 -10 -5 -6 -8 -4 -8 5 0 8 -19 -14 -41 -50 -96 -153 -210 -220 -371
-220 -161 0 -308 93 -377 239 -23 49 -26 68 -26 161 0 96 3 110 29 165 17 35
54 84 87 116 75 74 149 109 245 116 l75 6 -3 151 -3 151 -84 -2 c-141 -4 -274
-50 -394 -137 l-48 -34 35 -27 36 -27 55 37 c74 49 156 84 235 101 95 20 90
24 90 -60 l0 -73 -57 -12 c-73 -14 -167 -58 -218 -103 l-39 -35 -130 100 -131
99 -1 47 c-1 54 -24 104 -59 127 -38 25 -104 28 -145 7z m109 -89 c12 -15 21
-32 21 -39 0 -24 -41 -65 -66 -65 -31 0 -64 33 -64 65 0 32 33 65 64 65 15 0
33 -11 45 -26z m-376 -582 c9 -8 17 -27 17 -42 0 -37 -30 -62 -71 -58 -64 6
-76 95 -17 117 26 9 45 5 71 -17z m377 -582 c41 -41 13 -110 -45 -110 -61 0
-85 61 -40 105 29 30 58 32 85 5z"/>
<path d="M7446 2964 c-48 -47 23 -117 80 -79 26 16 31 44 14 76 -13 24 -72 26
-94 3z"/>
<path d="M4296 2893 c-21 -41 -141 -300 -187 -400 l-28 -63 49 0 49 0 25 55
25 55 131 0 130 0 27 -55 27 -55 49 0 c36 0 48 3 44 13 -3 6 -55 118 -115 247
l-109 235 -50 3 c-48 3 -49 2 -67 -35z m112 -165 c23 -51 42 -96 42 -100 0 -5
-41 -8 -91 -8 -73 0 -90 3 -86 14 24 63 82 186 87 186 3 0 25 -42 48 -92z"/>
<path d="M5200 2855 c0 -45 0 -45 -35 -45 -33 0 -35 -2 -35 -34 0 -32 3 -35
32 -38 l32 -3 0 -110 c2 -122 15 -162 61 -183 35 -16 127 -15 149 1 15 11 16
17 5 40 -11 24 -16 26 -49 21 -60 -10 -70 8 -70 132 l0 104 50 0 50 0 0 35 0
35 -50 0 -50 0 0 45 0 45 -45 0 -45 0 0 -45z"/>
<path d="M7150 2855 c0 -43 -1 -45 -30 -45 -28 0 -30 -3 -30 -35 0 -32 2 -35
30 -35 l30 0 0 -105 c0 -161 29 -205 138 -205 62 0 86 16 74 50 -8 21 -16 25
-53 25 -59 0 -70 22 -67 140 l3 90 53 3 52 3 0 35 0 34 -50 0 -50 0 0 45 0 45
-50 0 -50 0 0 -45z"/>
<path d="M5595 2809 c-51 -12 -113 -62 -131 -105 -27 -65 -11 -167 34 -217 67
-74 228 -79 305 -9 53 47 73 154 43 226 -19 46 -81 93 -138 106 -55 11 -58 11
-113 -1z m129 -93 c53 -34 58 -132 10 -180 -74 -74 -194 -18 -194 91 0 33 30
81 62 100 28 16 90 11 122 -11z"/>
<path d="M6106 2805 c-21 -7 -43 -18 -49 -24 -17 -17 -26 -13 -20 9 5 18 0 20
-41 20 l-46 0 0 -190 0 -190 44 0 44 0 4 126 3 126 34 30 c28 25 39 29 69 24
62 -10 67 -21 70 -171 l4 -135 43 0 43 0 3 124 c4 114 6 127 27 149 42 44 117
43 142 -3 6 -11 13 -75 15 -143 l5 -122 46 -3 47 -3 -5 138 c-5 144 -14 178
-56 216 -46 42 -156 40 -213 -2 l-29 -22 -22 21 c-21 20 -78 40 -108 40 -8 -1
-32 -7 -54 -15z"/>
<path d="M6781 2810 c-24 -5 -54 -16 -67 -24 -20 -14 -21 -19 -11 -46 13 -35
13 -35 60 -15 76 32 167 5 167 -48 0 -21 -5 -22 -79 -23 -128 -2 -192 -48
-177 -128 17 -90 154 -133 239 -74 27 19 27 19 27 -1 0 -18 6 -21 46 -21 l46
0 -4 144 c-3 128 -5 148 -24 173 -43 58 -130 82 -223 63z m155 -223 c18 -48
-55 -105 -120 -93 -61 12 -74 74 -18 95 41 15 132 14 138 -2z"/>
<path d="M7767 2806 c-56 -15 -102 -55 -128 -111 -59 -127 38 -265 186 -265
94 0 161 39 196 115 71 154 -80 309 -254 261z m139 -97 c72 -68 34 -194 -63
-205 -79 -10 -144 66 -123 145 9 36 39 72 70 84 29 12 92 -1 116 -24z"/>
<path d="M8292 2811 c-18 -5 -41 -16 -51 -25 -23 -21 -31 -20 -31 4 0 17 -7
20 -45 20 l-45 0 0 -190 0 -190 44 0 c55 0 56 3 54 135 -2 118 11 148 73 166
47 15 91 -1 108 -37 6 -14 11 -77 11 -145 l0 -120 48 3 47 3 -1 136 c-1 116
-4 141 -20 170 -34 59 -117 88 -192 70z"/>
<path d="M4690 2678 c0 -152 11 -186 70 -226 30 -20 45 -23 102 -20 54 3 72 8
93 28 l25 23 0 -26 c0 -25 3 -27 45 -27 l45 0 0 190 0 190 -45 0 -45 0 0 -94
c0 -117 -6 -149 -36 -181 -17 -19 -33 -25 -64 -25 -84 0 -100 30 -100 191 l0
109 -45 0 -45 0 0 -132z"/>
<path d="M7447 2743 c-4 -38 -7 -123 -7 -190 l0 -123 50 0 50 0 0 190 0 190
-44 0 -43 0 -6 -67z"/>
<path d="M5667 2073 c-32 -70 -57 -131 -57 -135 0 -19 44 0 56 24 14 27 18 28
84 28 65 0 70 -2 76 -24 4 -17 14 -25 35 -28 16 -3 29 -2 28 1 0 3 -26 62 -57
131 -50 108 -61 125 -83 128 -24 3 -29 -6 -82 -125z m103 25 c28 -63 26 -68
-25 -68 -25 0 -45 3 -45 6 0 10 42 104 47 104 2 0 13 -19 23 -42z"/>
<path d="M6014 2187 c-2 -7 -3 -67 -2 -133 3 -116 4 -119 26 -120 22 -1 22 0
22 132 0 128 -1 134 -20 134 -11 0 -23 -6 -26 -13z"/>
<path d="M6492 2188 c-15 -19 -115 -248 -110 -253 10 -11 45 9 59 33 14 26 18
27 82 24 55 -3 67 -7 72 -23 6 -19 52 -45 62 -35 5 4 -95 234 -110 254 -5 6
-17 12 -27 12 -10 0 -22 -6 -28 -12z m51 -91 c25 -62 23 -67 -29 -67 -25 0
-44 3 -42 8 2 4 11 28 22 55 10 26 21 47 25 47 3 0 14 -19 24 -43z"/>
<path d="M6829 2177 c-76 -50 -87 -141 -25 -203 41 -41 92 -52 155 -32 l46 14
3 57 c3 55 2 57 -23 57 -23 0 -25 -3 -25 -45 l0 -45 -48 0 c-38 0 -53 5 -69
23 -31 34 -36 62 -17 102 22 47 76 65 124 41 25 -12 36 -13 46 -5 21 17 17 25
-20 43 -49 23 -106 20 -147 -7z"/>
<path d="M7160 2070 l0 -130 28 0 c15 0 57 -3 95 -7 63 -5 67 -5 67 14 0 24
-24 33 -91 33 -43 0 -47 2 -52 27 -3 16 -3 31 0 35 2 5 31 8 64 8 52 0 59 2
59 20 0 18 -7 20 -60 20 -55 0 -60 2 -66 24 -9 39 2 46 77 46 62 0 69 2 69 20
0 19 -7 20 -95 20 l-95 0 0 -130z"/>
<path d="M7499 2196 c-2 -2 -3 -61 -1 -130 3 -117 5 -126 23 -126 17 0 19 7
19 80 0 44 3 80 8 80 4 0 34 -34 67 -76 55 -71 89 -98 108 -87 4 2 7 62 7 134
l0 129 -25 0 c-24 0 -24 -2 -27 -86 l-3 -86 -73 86 c-65 77 -89 96 -103 82z"/>
<path d="M7934 2181 c-48 -30 -64 -59 -64 -117 0 -58 22 -94 73 -120 37 -20
105 -14 143 11 23 15 24 19 12 31 -12 13 -19 13 -50 0 -67 -28 -128 9 -128 79
0 71 68 113 131 81 28 -14 35 -14 46 -3 22 22 -18 50 -80 54 -39 3 -60 -1 -83
-16z"/>
<path d="M8210 2193 c0 -5 23 -43 50 -86 41 -64 50 -86 50 -123 0 -40 2 -44
25 -44 23 0 25 4 25 47 0 37 9 60 44 117 23 39 46 77 50 84 5 8 0 12 -16 12
-17 0 -32 -15 -61 -60 -21 -34 -42 -58 -47 -55 -5 3 -23 30 -40 60 -25 43 -37
55 -56 55 -13 0 -24 -3 -24 -7z"/>
</g>
</svg>
